<svg width="32" height="32" viewBox="0 0 32 32" fill="none" xmlns="http://www.w3.org/2000/svg">
<path d="M32 8.765C32 8.52288 31.8602 8.30263 31.6411 8.1995L25.8964 5.49613C25.5841 5.34888 25.2117 5.48319 25.0648 5.7955C24.9178 6.10782 25.0518 6.48013 25.3642 6.62713L29.9072 8.765L16.0002 15.3095L2.09281 8.765L16 2.22057L20.4089 4.29532C20.7212 4.44244 21.0936 4.30819 21.2406 3.99594C21.3876 3.68363 21.2535 3.31132 20.9411 3.16432L16.2661 0.964316C16.0976 0.884941 15.9024 0.884941 15.7338 0.964316L0.358813 8.19957C0.139813 8.30263 0 8.52288 0 8.765C0 9.00713 0.139812 9.22738 0.358875 9.3305L6.84513 12.3829L0.359 15.4347C0.139937 15.5378 6.25e-05 15.7581 6.25e-05 16.0003C6.25e-05 16.2423 0.139875 16.4626 0.358938 16.5658L6.84487 19.618L0.358938 22.6703C0.139875 22.7734 6.25e-05 22.9938 6.25e-05 23.2358C6.25e-05 23.4779 0.139875 23.6983 0.358938 23.8013L15.7341 31.0363C15.9012 31.1149 16.0992 31.1149 16.2664 31.0363L31.6409 23.8013C31.86 23.6983 31.9998 23.4779 31.9998 23.2358C31.9998 22.9938 31.86 22.7734 31.6409 22.6703L25.1554 19.6179L31.6409 16.5658C31.86 16.4627 31.9998 16.2423 31.9998 16.0003C31.9998 15.7581 31.86 15.5378 31.6409 15.4348L25.1551 12.3828L31.6411 9.3305C31.8602 9.22744 32 9.00713 32 8.765ZM14.5323 16.0003L8.31269 18.9273L5.89775 17.7908L12.1804 14.8937L14.5323 16.0003ZM9.78044 19.618L16.2648 16.5664C16.2653 16.5662 16.2658 16.5661 16.2663 16.5658L23.6878 13.0739L26.0651 14.1925L12.0171 20.6706L9.78044 19.618ZM8.31269 13.0739L10.7029 14.1985L4.42037 17.0956L2.093 16.0003L8.31269 13.0739ZM23.6879 20.3088L29.9071 23.2358L16.0002 29.78L2.09294 23.2358L8.31269 20.3088L15.7342 23.8013C15.9011 23.8799 16.0998 23.8798 16.2665 23.8013L23.6879 20.3088ZM16.0002 22.5451L13.4944 21.3658L27.5425 14.8877L29.907 16.0003L16.0002 22.5451Z" fill="#A9B9D2"/>
<path d="M8.99057 22.9728L7.70945 22.3178C7.40214 22.1604 7.02557 22.2825 6.86845 22.5897C6.71132 22.8971 6.83307 23.2736 7.14045 23.4307L8.42157 24.0857C8.72495 24.241 9.10757 24.1168 9.26257 23.8138C9.41964 23.5064 9.29789 23.1298 8.99057 22.9728Z" fill="#A9B9D2"/>
<path d="M12.9566 24.8902L11.6756 24.2352C11.3681 24.0779 10.9917 24.1999 10.8345 24.5072C10.6774 24.8146 10.7991 25.1911 11.1065 25.3482L12.3875 26.0032C12.691 26.1584 13.0736 26.0343 13.2286 25.7312C13.3857 25.4239 13.264 25.0474 12.9566 24.8902Z" fill="#A9B9D2"/>
<path d="M14.8631 26.4246C14.706 26.732 14.8277 27.1085 15.1351 27.2656L16.4162 27.9206C16.7196 28.076 17.1022 27.9518 17.2572 27.6487C17.4143 27.3413 17.2926 26.9648 16.9852 26.8077L15.7041 26.1527C15.3967 25.9954 15.0202 26.1174 14.8631 26.4246Z" fill="#A9B9D2"/>
<path d="M18.8535 25.4106L20.1346 26.0656C20.438 26.2208 20.8206 26.0967 20.9756 25.7936C21.1328 25.4863 21.011 25.1098 20.7037 24.9526L19.4226 24.2976C19.1152 24.1403 18.7388 24.2623 18.5816 24.5696C18.4245 24.8769 18.5462 25.2534 18.8535 25.4106Z" fill="#A9B9D2"/>
<path d="M22.5718 23.5555L23.8528 24.2105C24.1563 24.3657 24.5389 24.2416 24.6939 23.9385C24.851 23.6311 24.7293 23.2546 24.422 23.0975L23.1409 22.4425C22.8335 22.2851 22.457 22.4072 22.2998 22.7145C22.1427 23.0218 22.2645 23.3983 22.5718 23.5555Z" fill="#A9B9D2"/>
<path d="M22.6838 5.25647C22.8327 5.47766 23.1127 5.58341 23.3703 5.51185C23.6273 5.44041 23.8143 5.20685 23.828 4.94022C23.856 4.39378 23.1874 4.08303 22.784 4.44678C22.5572 4.65122 22.5145 5.00285 22.6838 5.25647Z" fill="#A9B9D2"/>
</svg>
