<svg width="118" height="92" viewBox="0 0 118 92" fill="none" xmlns="http://www.w3.org/2000/svg">
<path d="M109.296 0.803467V77.738H102.617V5.8253H9.31104V0.803467H109.296Z" fill="#E1EBF0"/>
<path d="M102.617 77.738V82.5589H2.42896V5.82532H9.31096H102.617V77.738ZM95.9371 44.5939V39.3712H79.5418V36.3581V31.1354H56.064V36.3581V59.6594H72.4594V67.8952H95.7347V44.5939H95.9371ZM16.5978 60.262V52.4279H8.90612V60.262H16.5978ZM16.5978 46.8035V39.1703H8.90612V46.8035H16.5978ZM16.5978 33.5458V25.9127H8.90612V33.5458H16.5978ZM16.5978 20.0873V12.4541H8.90612V20.0873H16.5978Z" fill="#E1EBF0"/>
<path d="M95.9374 44.5939V67.8952H72.6621V59.6594H79.3417V44.5939H95.9374Z" fill="white"/>
<path d="M95.7367 39.1703H79.3413V44.393H95.7367V39.1703Z" fill="white"/>
<path d="M79.3417 44.5939V59.6594H72.6621H56.0664V36.1572H79.3417V39.1703V44.5939Z" fill="white"/>
<path d="M79.3417 30.9345H56.0664V36.1572H79.3417V30.9345Z" fill="white"/>
<path d="M16.7983 52.6288H9.10864V60.4629H16.7983V52.6288Z" fill="white"/>
<path d="M16.7983 39.1703H9.10864V46.8035H16.7983V39.1703Z" fill="white"/>
<path d="M16.7983 25.9127H9.10864V33.5459H16.7983V25.9127Z" fill="white"/>
<path d="M16.7983 12.655H9.10864V20.2881H16.7983V12.655Z" fill="white"/>
<path d="M102.616 83.1613H2.42804C2.02321 83.1613 1.61841 82.7595 1.61841 82.3578V5.82504C1.61841 5.4233 2.02321 5.02155 2.42804 5.02155H9.31005C9.71487 5.02155 10.1197 5.4233 10.1197 5.82504C10.1197 6.22679 9.71487 6.62854 9.31005 6.62854H3.2377V81.7552H102.009V77.7377C102.009 77.336 102.413 76.9342 102.818 76.9342C103.223 76.9342 103.628 77.336 103.628 77.7377V82.5587C103.425 82.7595 103.021 83.1613 102.616 83.1613Z" fill="#6496B5"/>
<path d="M109.296 78.3406H102.617C102.212 78.3406 101.807 77.9389 101.807 77.5371V6.62883H9.31088C8.90606 6.62883 8.50122 6.22708 8.50122 5.82533V0.803496C8.50122 0.40175 8.90606 0 9.31088 0H109.296C109.701 0 110.106 0.40175 110.106 0.803496V77.738C110.106 78.1397 109.701 78.3406 109.296 78.3406ZM103.426 76.9345H108.485V1.60699H10.1185V5.2227H102.817C103.222 5.2227 103.627 5.62445 103.627 6.0262V76.9345H103.426Z" fill="#6496B5"/>
<path d="M95.937 68.6986H72.6617C72.2569 68.6986 71.8521 68.2969 71.8521 67.8951V59.6593C71.8521 59.2576 72.2569 58.8558 72.6617 58.8558C73.0665 58.8558 73.4713 59.2576 73.4713 59.6593V67.2925H95.3298V44.5938C95.3298 44.1921 95.7346 43.7903 96.1394 43.7903C96.5442 43.7903 96.9491 44.1921 96.9491 44.5938V67.8951C96.5443 68.2969 96.3418 68.6986 95.937 68.6986Z" fill="#6496B5"/>
<path d="M79.3413 60.262H56.066C55.6612 60.262 55.2563 59.8602 55.2563 59.4585V36.1572C55.2563 35.7554 55.6612 35.3537 56.066 35.3537C56.4708 35.3537 56.8756 35.7554 56.8756 36.1572V58.8559H78.7341V44.5939C78.7341 44.1921 79.1389 43.7904 79.5438 43.7904C79.9486 43.7904 80.3534 44.1921 80.3534 44.5939V59.6594C80.149 60.0611 79.7462 60.262 79.3413 60.262Z" fill="#6496B5"/>
<path d="M79.3414 39.9738C78.9366 39.9738 78.5317 39.572 78.5317 39.1703V36.1572C78.5317 35.7554 78.9366 35.3537 79.3414 35.3537C79.7462 35.3537 80.151 35.7554 80.151 36.1572V39.1703C80.149 39.572 79.7462 39.9738 79.3414 39.9738Z" fill="#6496B5"/>
<path d="M95.9369 45.1965H79.5416C79.1367 45.1965 78.7319 44.7947 78.7319 44.393V39.1703C78.7319 38.7685 79.1367 38.3668 79.5416 38.3668H95.9369C96.3417 38.3668 96.7466 38.7685 96.7466 39.1703V44.393C96.5442 44.9956 96.3417 45.1965 95.9369 45.1965ZM80.1488 43.7903H95.1273V39.9738H80.1488V43.7903Z" fill="#6496B5"/>
<path d="M79.3413 36.9607H56.066C55.6612 36.9607 55.2563 36.5589 55.2563 36.1572V30.9345C55.2563 30.5327 55.6612 30.131 56.066 30.131H79.3413C79.7462 30.131 80.151 30.5327 80.151 30.9345V36.1572C80.149 36.5589 79.7462 36.9607 79.3413 36.9607ZM56.8756 35.5546H78.7341V31.738H56.8756V35.5546Z" fill="#6496B5"/>
<path d="M69.2203 42.585H60.9214C60.5166 42.585 60.1118 42.1833 60.1118 41.7815C60.1118 41.3798 60.5166 40.978 60.9214 40.978H69.2203C69.6252 40.978 70.03 41.3798 70.03 41.7815C70.03 42.1833 69.6252 42.585 69.2203 42.585Z" fill="#6496B5"/>
<path d="M74.6855 47.0043H60.9214C60.5166 47.0043 60.1118 46.6026 60.1118 46.2008C60.1118 45.7991 60.5166 45.3973 60.9214 45.3973H74.6855C75.0903 45.3973 75.4951 45.7991 75.4951 46.2008C75.4951 46.6026 75.0903 47.0043 74.6855 47.0043Z" fill="#6496B5"/>
<path d="M74.6855 51.2227H60.9214C60.5166 51.2227 60.1118 50.821 60.1118 50.4192C60.1118 50.0175 60.5166 49.6157 60.9214 49.6157H74.6855C75.0903 49.6157 75.4951 50.0175 75.4951 50.4192C75.4951 50.821 75.0903 51.2227 74.6855 51.2227Z" fill="#6496B5"/>
<path d="M74.6855 55.8426H60.9214C60.5166 55.8426 60.1118 55.4409 60.1118 55.0392C60.1118 54.6374 60.5166 54.2357 60.9214 54.2357H74.6855C75.0903 54.2357 75.4951 54.6374 75.4951 55.0392C75.4951 55.4409 75.0903 55.8426 74.6855 55.8426Z" fill="#6496B5"/>
<path d="M92.2955 63.2751H83.9967C83.5918 63.2751 83.187 62.8734 83.187 62.4716C83.187 62.0699 83.5918 61.6682 83.9967 61.6682H92.2955C92.7004 61.6682 93.1052 62.0699 93.1052 62.4716C93.1032 62.8734 92.6984 63.2751 92.2955 63.2751Z" fill="#6496B5"/>
<path d="M92.2955 59.2577H83.9967C83.5918 59.2577 83.187 58.8559 83.187 58.4542C83.187 58.0524 83.5918 57.6507 83.9967 57.6507H92.2955C92.7004 57.6507 93.1052 58.0524 93.1052 58.4542C93.1032 58.8559 92.6984 59.2577 92.2955 59.2577Z" fill="#6496B5"/>
<path d="M16.5977 20.8908H8.90607C8.50124 20.8908 8.09644 20.4891 8.09644 20.0873V12.4541C8.09644 12.0524 8.50124 11.6506 8.90607 11.6506H16.5977C17.0026 11.6506 17.4074 12.0524 17.4074 12.4541V20.0873C17.4074 20.4891 17.0026 20.8908 16.5977 20.8908ZM9.91813 19.4847H15.9905V13.4585H9.91813V19.4847Z" fill="#6496B5"/>
<path d="M16.5977 34.1485H8.90607C8.50124 34.1485 8.09644 33.7467 8.09644 33.345V25.9127C8.09644 25.5109 8.50124 25.1092 8.90607 25.1092H16.5977C17.0026 25.1092 17.4074 25.5109 17.4074 25.9127V33.5459C17.4074 33.9476 17.0026 34.1485 16.5977 34.1485ZM9.91813 32.7424H15.9905V26.7162H9.91813V32.7424Z" fill="#6496B5"/>
<path d="M16.5977 47.607H8.90607C8.50124 47.607 8.09644 47.2053 8.09644 46.8035V39.1703C8.09644 38.7686 8.50124 38.3668 8.90607 38.3668H16.5977C17.0026 38.3668 17.4074 38.7686 17.4074 39.1703V46.8035C17.4074 47.2053 17.0026 47.607 16.5977 47.607ZM9.91813 46H15.9905V39.9738H9.91813V46Z" fill="#6496B5"/>
<path d="M16.5977 61.0655H8.90607C8.50124 61.0655 8.09644 60.6637 8.09644 60.262V52.4279C8.09644 52.0262 8.50124 51.6245 8.90607 51.6245H16.5977C17.0026 51.6245 17.4074 52.0262 17.4074 52.4279V60.262C17.4074 60.6637 17.0026 61.0655 16.5977 61.0655ZM9.91813 59.6594H15.9905V53.4323H9.91813V59.6594Z" fill="#6496B5"/>
<path d="M40.8848 66.6898H9.10824C8.70342 66.6898 8.29858 66.2881 8.29858 65.8863C8.29858 65.4846 8.70342 65.0828 9.10824 65.0828H41.0873C41.4921 65.0828 41.8969 65.4846 41.8969 65.8863C41.8969 66.2881 41.2897 66.6898 40.8848 66.6898Z" fill="#6496B5"/>
<path d="M63.553 71.9125H9.10824C8.70342 71.9125 8.29858 71.5108 8.29858 71.109C8.29858 70.7073 8.70342 70.3055 9.10824 70.3055H63.553C63.9578 70.3055 64.3626 70.7073 64.3626 71.109C64.3646 71.5108 63.9578 71.9125 63.553 71.9125Z" fill="#6496B5"/>
<path d="M63.553 77.3362H9.10824C8.70342 77.3362 8.29858 76.9345 8.29858 76.5327C8.29858 76.131 8.70342 75.7292 9.10824 75.7292H63.553C63.9578 75.7292 64.3626 76.131 64.3626 76.5327C64.1602 77.1353 63.9578 77.3362 63.553 77.3362Z" fill="#6496B5"/>
<path d="M93.5098 18.6811H92.2954C91.8905 18.6811 91.4857 18.2793 91.4857 17.8776C91.4857 17.4758 91.8905 17.0741 92.2954 17.0741H93.5098C93.9147 17.0741 94.3195 17.4758 94.3195 17.8776C94.3195 18.2793 93.9127 18.6811 93.5098 18.6811ZM87.8403 18.6811H86.6258C86.221 18.6811 85.8162 18.2793 85.8162 17.8776C85.8162 17.4758 86.221 17.0741 86.6258 17.0741H87.8403C88.2451 17.0741 88.65 17.4758 88.65 17.8776C88.4495 18.2793 88.2472 18.6811 87.8403 18.6811ZM81.9724 18.6811H80.7579C80.3531 18.6811 79.9483 18.2793 79.9483 17.8776C79.9483 17.4758 80.3531 17.0741 80.7579 17.0741H81.9724C82.3772 17.0741 82.782 17.4758 82.782 17.8776C82.782 18.2793 82.3772 18.6811 81.9724 18.6811ZM76.1024 18.6811H74.888C74.4832 18.6811 74.0783 18.2793 74.0783 17.8776C74.0783 17.4758 74.4832 17.0741 74.888 17.0741H76.1024C76.5073 17.0741 76.9121 17.4758 76.9121 17.8776C76.9121 18.2793 76.5073 18.6811 76.1024 18.6811ZM70.2325 18.6811H69.018C68.6132 18.6811 68.2084 18.2793 68.2084 17.8776C68.2084 17.4758 68.6132 17.0741 69.018 17.0741H70.2325C70.6373 17.0741 71.0421 17.4758 71.0421 17.8776C71.0421 18.2793 70.6373 18.6811 70.2325 18.6811ZM64.565 18.6811H63.3505C62.9457 18.6811 62.5409 18.2793 62.5409 17.8776C62.5409 17.4758 62.9457 17.0741 63.3505 17.0741H64.565C64.9698 17.0741 65.3746 17.4758 65.3746 17.8776C65.1722 18.2793 64.9698 18.6811 64.565 18.6811ZM58.695 18.6811H57.4806C57.0757 18.6811 56.6709 18.2793 56.6709 17.8776C56.6709 17.4758 57.0757 17.0741 57.4806 17.0741H58.695C59.0999 17.0741 59.5047 17.4758 59.5047 17.8776C59.5047 18.2793 59.1019 18.6811 58.695 18.6811ZM52.8271 18.6811H51.6126C51.2078 18.6811 50.803 18.2793 50.803 17.8776C50.803 17.4758 51.2078 17.0741 51.6126 17.0741H52.8271C53.2319 17.0741 53.6368 17.4758 53.6368 17.8776C53.6368 18.2793 53.2319 18.6811 52.8271 18.6811ZM46.9572 18.6811H45.7427C45.3379 18.6811 44.933 18.2793 44.933 17.8776C44.933 17.4758 45.3379 17.0741 45.7427 17.0741H46.9572C47.362 17.0741 47.7668 17.4758 47.7668 17.8776C47.7668 18.2793 47.362 18.6811 46.9572 18.6811ZM41.2897 18.6811H40.0752C39.6704 18.6811 39.2655 18.2793 39.2655 17.8776C39.2655 17.4758 39.6704 17.0741 40.0752 17.0741H41.2897C41.6945 17.0741 42.0993 17.4758 42.0993 17.8776C41.8969 18.2793 41.6945 18.6811 41.2897 18.6811ZM35.4197 18.6811H34.2052C33.8004 18.6811 33.3956 18.2793 33.3956 17.8776C33.3956 17.4758 33.8004 17.0741 34.2052 17.0741H35.4197C35.8245 17.0741 36.2293 17.4758 36.2293 17.8776C36.2293 18.2793 35.8245 18.6811 35.4197 18.6811ZM29.5498 18.6811H28.3353C27.9305 18.6811 27.5256 18.2793 27.5256 17.8776C27.5256 17.4758 27.9305 17.0741 28.3353 17.0741H29.5498C29.9546 17.0741 30.3594 17.4758 30.3594 17.8776C30.3594 18.2793 29.9566 18.6811 29.5498 18.6811Z" fill="#6496B5"/>
<path d="M82.7823 88.3843H3.84579C3.44097 88.3843 3.03613 87.9826 3.03613 87.5808C3.03613 87.1791 3.44097 86.7773 3.84579 86.7773H82.7823C83.1872 86.7773 83.592 87.1791 83.592 87.5808C83.3896 88.1834 83.1872 88.3843 82.7823 88.3843Z" fill="#6496B5"/>
<path d="M104.641 92H49.9918C49.587 92 49.1821 91.5982 49.1821 91.1965C49.1821 90.7948 49.587 90.393 49.9918 90.393H104.641C105.046 90.393 105.451 90.7948 105.451 91.1965C105.451 91.5982 105.046 92 104.641 92Z" fill="#6496B5"/>
<path d="M117.19 92H110.308C109.903 92 109.499 91.5982 109.499 91.1965C109.499 90.7948 109.903 90.393 110.308 90.393H117.19C117.595 90.393 118 90.7948 118 91.1965C117.797 91.5982 117.595 92 117.19 92Z" fill="#6496B5"/>
<path d="M26.5139 91.7991H0.809661C0.404837 91.7991 0 91.3974 0 90.9956C0 90.5939 0.404837 90.1921 0.809661 90.1921H26.5139C26.9188 90.1921 27.3236 90.5939 27.3236 90.9956C27.3256 91.3974 26.9208 91.7991 26.5139 91.7991Z" fill="#6496B5"/>
</svg>
