<svg width="82" height="93" viewBox="0 0 82 93" fill="none" xmlns="http://www.w3.org/2000/svg">
<path d="M72.0434 80.9382V85.6724H6.38135V22.076H71.884V80.9382H72.0434Z" fill="#E1EBF0"/>
<path d="M72.0434 11.1874V22.0745H6.38135V11.1874H10.8441H72.0434ZM64.2351 18.4465C65.1914 18.4465 66.3071 17.6575 66.3071 16.395C66.3071 15.4466 65.3508 14.6575 64.2351 14.6575C63.1194 14.6575 62.1631 15.4466 62.1631 16.395C62.1631 17.6575 63.2788 18.4465 64.2351 18.4465ZM56.2658 18.4465C57.5409 18.4465 58.3378 17.6575 58.3378 16.395C58.3378 15.4466 57.5409 14.6575 56.2658 14.6575C55.3111 14.6575 54.5126 15.4466 54.5126 16.395C54.5126 17.6575 55.3095 18.4465 56.2658 18.4465Z" fill="#E1EBF0"/>
<path d="M72.0435 86.3036H6.38142C6.06265 86.3036 5.7439 85.988 5.7439 85.6724V22.076C5.7439 21.7604 6.06265 21.4464 6.38142 21.4464C6.7002 21.4464 7.01898 21.7604 7.01898 22.076V85.199H71.4059V81.096C71.4059 80.7804 71.7247 80.4647 72.0435 80.4647C72.3623 80.4647 72.681 80.7804 72.681 81.096V85.8302C72.5216 85.988 72.3623 86.3036 72.0435 86.3036Z" fill="#6496B5"/>
<path d="M76.3468 81.5694H71.884C71.5652 81.5694 71.2465 81.2538 71.2465 80.9381V22.076C71.2465 21.7604 71.5652 21.4464 71.884 21.4464C72.2028 21.4464 72.5215 21.7604 72.5215 22.076V80.4647H75.7093V76.3618C75.7093 76.0462 76.028 75.7305 76.3468 75.7305C76.6656 75.7305 76.9843 76.0462 76.9843 76.3618V81.096C76.9843 81.2538 76.6656 81.5694 76.3468 81.5694Z" fill="#6496B5"/>
<path d="M10.8442 11.8185C10.5254 11.8185 10.2067 11.5029 10.2067 11.1889V6.29528C10.2067 5.97967 10.5254 5.66565 10.8442 5.66565H15.4664C15.7852 5.66565 16.1039 5.97967 16.1039 6.29528C16.1039 6.61089 15.7852 6.92655 15.4664 6.92655H11.4818V11.3451C11.4818 11.5029 11.163 11.8185 10.8442 11.8185Z" fill="#6496B5"/>
<path d="M80.9691 76.8352H76.3469C76.0281 76.8352 75.7093 76.5195 75.7093 76.2039V6.7687H15.4664C15.1476 6.7687 14.8289 6.45469 14.8289 6.13907V1.40485C14.8289 1.08924 15.1476 0.773682 15.4664 0.773682H80.9691C81.2878 0.773682 81.6066 1.08924 81.6066 1.40485V76.2039C81.6066 76.5195 81.2878 76.8352 80.9691 76.8352ZM76.9844 75.7305H80.3315V2.03448H15.943V5.66567H76.3469C76.6656 5.66567 76.9844 5.97969 76.9844 6.2953V75.7305Z" fill="#6496B5"/>
<path d="M72.0435 22.5494H6.38142C6.06265 22.5494 5.7439 22.2354 5.7439 21.9198V11.0312C5.7439 10.7155 6.06265 10.4014 6.38142 10.4014H71.8841C72.2029 10.4014 72.5216 10.7155 72.5216 11.0312V21.9198C72.5216 22.3916 72.3622 22.5494 72.0435 22.5494ZM7.01898 21.4449H71.4059V11.8186H7.01898V21.4449Z" fill="#6496B5"/>
<path d="M23.2057 18.9698H22.3312L23.9234 14.447H24.9349L26.5293 18.9698H25.6548L24.4468 15.3745H24.4115L23.2057 18.9698ZM23.2344 17.1964H25.6195V17.8545H23.2344V17.1964Z" fill="#6496B5"/>
<path d="M21.9293 15.973H21.1033C21.0798 15.8375 21.0363 15.7175 20.973 15.613C20.9097 15.507 20.831 15.4172 20.7367 15.3436C20.6425 15.27 20.535 15.2148 20.4143 15.1779C20.2951 15.1397 20.1662 15.1205 20.0278 15.1205C19.782 15.1205 19.5641 15.1824 19.3742 15.306C19.1842 15.4282 19.0355 15.6078 18.9281 15.8449C18.8206 16.0804 18.7668 16.3683 18.7668 16.7084C18.7668 17.0543 18.8206 17.3459 18.9281 17.5829C19.037 17.8185 19.1857 17.9966 19.3742 18.1173C19.5641 18.2366 19.7812 18.2962 20.0256 18.2962C20.1611 18.2962 20.2877 18.2785 20.4055 18.2432C20.5247 18.2064 20.6315 18.1527 20.7257 18.082C20.8214 18.0113 20.9016 17.9245 20.9664 17.8214C21.0327 17.7183 21.0783 17.6006 21.1033 17.4681L21.9293 17.4725C21.8984 17.6874 21.8314 17.8891 21.7283 18.0776C21.6267 18.266 21.4935 18.4324 21.3286 18.5767C21.1637 18.7195 20.9708 18.8314 20.75 18.9123C20.5291 18.9918 20.284 19.0316 20.0146 19.0316C19.6171 19.0316 19.2623 18.9396 18.9501 18.7555C18.638 18.5715 18.3922 18.3058 18.2125 17.9583C18.0329 17.6109 17.9431 17.1942 17.9431 16.7084C17.9431 16.221 18.0337 15.8044 18.2147 15.4584C18.3958 15.111 18.6424 14.8452 18.9546 14.6612C19.2667 14.4771 19.62 14.3851 20.0146 14.3851C20.2663 14.3851 20.5004 14.4205 20.7169 14.4911C20.9333 14.5618 21.1261 14.6656 21.2955 14.8025C21.4648 14.938 21.6039 15.1043 21.7128 15.3016C21.8233 15.4974 21.8954 15.7212 21.9293 15.973Z" fill="#6496B5"/>
<path d="M14.7117 18.9698V14.447H15.531V18.2829H17.523V18.9698H14.7117Z" fill="#6496B5"/>
<path d="M12.4917 19.036C12.1516 19.036 11.8579 18.9654 11.6106 18.824C11.3647 18.6812 11.1755 18.4795 11.043 18.2189C10.9105 17.9569 10.8442 17.6484 10.8442 17.2936C10.8442 16.9447 10.9105 16.6384 11.043 16.3749C11.177 16.1099 11.3639 15.9038 11.6039 15.7566C11.8439 15.6079 12.1258 15.5335 12.4497 15.5335C12.6588 15.5335 12.8561 15.5674 13.0416 15.6351C13.2286 15.7013 13.3935 15.8044 13.5363 15.9443C13.6806 16.0841 13.7939 16.2623 13.8764 16.4787C13.9588 16.6937 14 16.9498 14 17.2472V17.4924H11.2197V16.9535H13.2337C13.2322 16.8004 13.1991 16.6642 13.1343 16.545C13.0696 16.4242 12.979 16.3293 12.8627 16.2601C12.7479 16.1909 12.6139 16.1563 12.4608 16.1563C12.2974 16.1563 12.1538 16.196 12.0301 16.2755C11.9065 16.3536 11.81 16.4566 11.7408 16.5847C11.6731 16.7113 11.6385 16.8504 11.6371 17.0021V17.4725C11.6371 17.6698 11.6731 17.8391 11.7453 17.9804C11.8174 18.1203 11.9183 18.2278 12.0478 18.3028C12.1774 18.3764 12.329 18.4133 12.5027 18.4133C12.6191 18.4133 12.7243 18.3971 12.8185 18.3647C12.9128 18.3308 12.9945 18.2815 13.0637 18.2167C13.1329 18.1519 13.1851 18.0717 13.2205 17.976L13.9669 18.0599C13.9198 18.2572 13.83 18.4295 13.6975 18.5767C13.5665 18.7224 13.3986 18.8358 13.194 18.9168C12.9893 18.9963 12.7552 19.036 12.4917 19.036Z" fill="#6496B5"/>
<path d="M53.7156 90.2488H5.425C5.10623 90.2488 4.78748 89.9332 4.78748 89.6175C4.78748 89.3035 5.10623 88.9879 5.425 88.9879H53.7156C54.0344 88.9879 54.3532 89.3035 54.3532 89.6175C54.1938 89.9332 54.0344 90.2488 53.7156 90.2488Z" fill="#6496B5"/>
<path d="M66.9431 92.7737H33.7941C33.4754 92.7737 33.1566 92.4597 33.1566 92.144C33.1566 91.8284 33.4754 91.5129 33.7941 91.5129H67.1025C67.4213 91.5129 67.7401 91.8284 67.7401 92.144C67.5823 92.6159 67.2619 92.7737 66.9431 92.7737Z" fill="#6496B5"/>
<path d="M74.5936 92.7737H70.609C70.2902 92.7737 69.9714 92.4597 69.9714 92.144C69.9714 91.8284 70.2902 91.5129 70.609 91.5129H74.5936C74.9124 91.5129 75.2311 91.8284 75.2311 92.144C75.2311 92.6159 74.9124 92.7737 74.5936 92.7737Z" fill="#6496B5"/>
<path d="M17.379 92.7737H1.60142C1.28265 92.7737 0.963867 92.4597 0.963867 92.144C0.963867 91.8284 1.28265 91.5129 1.60142 91.5129H17.379C17.6978 91.5129 18.0165 91.8284 18.0165 92.144C18.0149 92.6159 17.6962 92.7737 17.379 92.7737Z" fill="#6496B5"/>
<path d="M63.4383 70.9963H62.482C62.1632 70.9963 61.8444 70.6807 61.8444 70.3667C61.8444 70.0511 62.1632 69.7354 62.482 69.7354H63.4383C63.7571 69.7354 64.0758 70.0511 64.0758 70.3667C64.0742 70.6807 63.7571 70.9963 63.4383 70.9963ZM58.8161 70.9963H57.8598C57.541 70.9963 57.2223 70.6807 57.2223 70.3667C57.2223 70.0511 57.541 69.7354 57.8598 69.7354H58.8161C59.1349 69.7354 59.4536 70.0511 59.4536 70.3667C59.4536 70.6807 59.1349 70.9963 58.8161 70.9963ZM54.1939 70.9963H53.2376C52.9188 70.9963 52.6001 70.6807 52.6001 70.3667C52.6001 70.0511 52.9188 69.7354 53.2376 69.7354H54.1939C54.5127 69.7354 54.8315 70.0511 54.8315 70.3667C54.8315 70.6807 54.5127 70.9963 54.1939 70.9963ZM49.7311 70.9963H48.7748C48.456 70.9963 48.1373 70.6807 48.1373 70.3667C48.1373 70.0511 48.456 69.7354 48.7748 69.7354H49.7311C50.0499 69.7354 50.3687 70.0511 50.3687 70.3667C50.2093 70.6807 50.0499 70.9963 49.7311 70.9963ZM45.109 70.9963H44.1526C43.8339 70.9963 43.5151 70.6807 43.5151 70.3667C43.5151 70.0511 43.8339 69.7354 44.1526 69.7354H45.109C45.4277 69.7354 45.7465 70.0511 45.7465 70.3667C45.7465 70.6807 45.4277 70.9963 45.109 70.9963ZM40.4884 70.9963H39.532C39.2133 70.9963 38.8945 70.6807 38.8945 70.3667C38.8945 70.0511 39.2133 69.7354 39.532 69.7354H40.4884C40.8071 69.7354 41.1259 70.0511 41.1259 70.3667C41.1243 70.6807 40.8071 70.9963 40.4884 70.9963ZM35.8662 70.9963H34.9099C34.5911 70.9963 34.2723 70.6807 34.2723 70.3667C34.2723 70.0511 34.5911 69.7354 34.9099 69.7354H35.8662C36.185 69.7354 36.5037 70.0511 36.5037 70.3667C36.5037 70.6807 36.185 70.9963 35.8662 70.9963ZM31.4034 70.9963H30.4471C30.1283 70.9963 29.8095 70.6807 29.8095 70.3667C29.8095 70.0511 30.1283 69.7354 30.4471 69.7354H31.4034C31.7222 69.7354 32.0409 70.0511 32.0409 70.3667C31.8816 70.6807 31.7222 70.9963 31.4034 70.9963ZM26.7812 70.9963H25.8249C25.5061 70.9963 25.1874 70.6807 25.1874 70.3667C25.1874 70.0511 25.5061 69.7354 25.8249 69.7354H26.7812C27.1 69.7354 27.4188 70.0511 27.4188 70.3667C27.4188 70.6807 27.1 70.9963 26.7812 70.9963ZM22.159 70.9963H21.2027C20.884 70.9963 20.5652 70.6807 20.5652 70.3667C20.5652 70.0511 20.884 69.7354 21.2027 69.7354H22.159C22.4778 69.7354 22.7966 70.0511 22.7966 70.3667C22.7966 70.6807 22.4778 70.9963 22.159 70.9963ZM17.5385 70.9963H16.5821C16.2634 70.9963 15.9446 70.6807 15.9446 70.3667C15.9446 70.0511 16.2634 69.7354 16.5821 69.7354H17.5385C17.8572 69.7354 18.176 70.0511 18.176 70.3667C18.1744 70.6807 17.8556 70.9963 17.5385 70.9963ZM13.0757 70.9963H12.1193C11.8006 70.9963 11.4818 70.6807 11.4818 70.3667C11.4818 70.0511 11.8006 69.7354 12.1193 69.7354H13.0757C13.3944 69.7354 13.7132 70.0511 13.7132 70.3667C13.5538 70.6807 13.3944 70.9963 13.0757 70.9963Z" fill="#6496B5"/>
<path d="M63.4383 74.6259H62.482C62.1632 74.6259 61.8444 74.3118 61.8444 73.9962C61.8444 73.6806 62.1632 73.3651 62.482 73.3651H63.4383C63.7571 73.3651 64.0758 73.6806 64.0758 73.9962C64.0742 74.4681 63.7571 74.6259 63.4383 74.6259ZM58.8161 74.6259H57.8598C57.541 74.6259 57.2223 74.3118 57.2223 73.9962C57.2223 73.6806 57.541 73.3651 57.8598 73.3651H58.8161C59.1349 73.3651 59.4536 73.6806 59.4536 73.9962C59.4536 74.4681 59.1349 74.6259 58.8161 74.6259ZM54.1939 74.6259H53.2376C52.9188 74.6259 52.6001 74.3118 52.6001 73.9962C52.6001 73.6806 52.9188 73.3651 53.2376 73.3651H54.1939C54.5127 73.3651 54.8315 73.6806 54.8315 73.9962C54.8315 74.4681 54.5127 74.6259 54.1939 74.6259ZM49.7311 74.6259H48.7748C48.456 74.6259 48.1373 74.3118 48.1373 73.9962C48.1373 73.6806 48.456 73.3651 48.7748 73.3651H49.7311C50.0499 73.3651 50.3687 73.6806 50.3687 73.9962C50.2093 74.4681 50.0499 74.6259 49.7311 74.6259ZM45.109 74.6259H44.1526C43.8339 74.6259 43.5151 74.3118 43.5151 73.9962C43.5151 73.6806 43.8339 73.3651 44.1526 73.3651H45.109C45.4277 73.3651 45.7465 73.6806 45.7465 73.9962C45.7465 74.4681 45.4277 74.6259 45.109 74.6259ZM40.4884 74.6259H39.532C39.2133 74.6259 38.8945 74.3118 38.8945 73.9962C38.8945 73.6806 39.2133 73.3651 39.532 73.3651H40.4884C40.8071 73.3651 41.1259 73.6806 41.1259 73.9962C41.1243 74.4681 40.8071 74.6259 40.4884 74.6259ZM35.8662 74.6259H34.9099C34.5911 74.6259 34.2723 74.3118 34.2723 73.9962C34.2723 73.6806 34.5911 73.3651 34.9099 73.3651H35.8662C36.185 73.3651 36.5037 73.6806 36.5037 73.9962C36.5037 74.4681 36.185 74.6259 35.8662 74.6259ZM31.4034 74.6259H30.4471C30.1283 74.6259 29.8095 74.3118 29.8095 73.9962C29.8095 73.6806 30.1283 73.3651 30.4471 73.3651H31.4034C31.7222 73.3651 32.0409 73.6806 32.0409 73.9962C31.8816 74.4681 31.7222 74.6259 31.4034 74.6259ZM26.7812 74.6259H25.8249C25.5061 74.6259 25.1874 74.3118 25.1874 73.9962C25.1874 73.6806 25.5061 73.3651 25.8249 73.3651H26.7812C27.1 73.3651 27.4188 73.6806 27.4188 73.9962C27.4188 74.4681 27.1 74.6259 26.7812 74.6259ZM22.159 74.6259H21.2027C20.884 74.6259 20.5652 74.3118 20.5652 73.9962C20.5652 73.6806 20.884 73.3651 21.2027 73.3651H22.159C22.4778 73.3651 22.7966 73.6806 22.7966 73.9962C22.7966 74.4681 22.4778 74.6259 22.159 74.6259ZM17.5385 74.6259H16.5821C16.2634 74.6259 15.9446 74.3118 15.9446 73.9962C15.9446 73.6806 16.2634 73.3651 16.5821 73.3651H17.5385C17.8572 73.3651 18.176 73.6806 18.176 73.9962C18.1744 74.4681 17.8556 74.6259 17.5385 74.6259ZM13.0757 74.6259H12.1193C11.8006 74.6259 11.4818 74.3118 11.4818 73.9962C11.4818 73.6806 11.8006 73.3651 12.1193 73.3651H13.0757C13.3944 73.3651 13.7132 73.6806 13.7132 73.9962C13.5538 74.4681 13.3944 74.6259 13.0757 74.6259Z" fill="#6496B5"/>
<path d="M64.2352 19.0778C62.9602 19.0778 61.6851 18.1293 61.6851 16.5513C61.6851 15.2888 62.9602 14.1841 64.2352 14.1841C65.6697 14.1841 66.7854 15.2888 66.7854 16.5513C66.7854 18.1309 65.5103 19.0778 64.2352 19.0778ZM64.2352 15.2904C63.5977 15.2904 62.8008 15.7638 62.8008 16.5528C62.8008 17.3418 63.5977 17.9731 64.2352 17.9731C64.8728 17.9731 65.6697 17.4996 65.6697 16.5528C65.6697 15.7638 64.8728 15.2904 64.2352 15.2904Z" fill="#6496B5"/>
<path d="M56.2658 19.0778C54.8313 19.0778 53.875 17.9731 53.875 16.5513C53.875 15.2888 54.9907 14.1841 56.2658 14.1841C57.7002 14.1841 58.8159 15.1326 58.8159 16.5513C58.8159 17.9731 57.7002 19.0778 56.2658 19.0778ZM56.2658 15.2904C55.6282 15.2904 54.9907 15.7638 54.9907 16.5528C54.9907 17.3418 55.4689 17.9731 56.2658 17.9731C57.0627 17.9731 57.7002 17.4996 57.7002 16.5528C57.7002 15.7638 57.0627 15.2904 56.2658 15.2904Z" fill="#6496B5"/>
<g clip-path="url(#clip0_7338_86582)">
<path d="M55.2124 41.5387C55.2124 41.2966 55.0726 41.0763 54.8535 40.9732L49.1088 38.2698C48.7965 38.1226 48.4241 38.2569 48.2772 38.5692C48.1302 38.8815 48.2642 39.2538 48.5766 39.4008L53.1196 41.5387L39.2126 48.0832L25.3052 41.5387L39.2124 34.9942L43.6213 37.069C43.9336 37.2161 44.306 37.0819 44.453 36.7696C44.6 36.4573 44.4659 36.085 44.1535 35.938L39.4785 33.738C39.31 33.6586 39.1148 33.6586 38.9462 33.738L23.5712 40.9732C23.3522 41.0763 23.2124 41.2966 23.2124 41.5387C23.2124 41.7808 23.3522 42.0011 23.5713 42.1042L30.0575 45.1566L23.5714 48.2084C23.3523 48.3114 23.2125 48.5318 23.2125 48.7739C23.2125 49.016 23.3523 49.2363 23.5713 49.3394L30.0573 52.3917L23.5713 55.444C23.3523 55.5471 23.2125 55.7674 23.2125 56.0095C23.2125 56.2516 23.3523 56.4719 23.5713 56.575L38.9465 63.8099C39.1136 63.8886 39.3117 63.8886 39.4788 63.8099L54.8533 56.575C55.0724 56.4719 55.2122 56.2516 55.2122 56.0095C55.2122 55.7674 55.0724 55.5471 54.8533 55.444L48.3678 52.3916L54.8533 49.3394C55.0724 49.2364 55.2122 49.016 55.2122 48.7739C55.2122 48.5318 55.0724 48.3115 54.8533 48.2084L48.3675 45.1564L54.8535 42.1042C55.0726 42.0011 55.2124 41.7808 55.2124 41.5387ZM37.7447 48.774L31.5251 51.7009L29.1102 50.5645L35.3928 47.6674L37.7447 48.774ZM32.9928 52.3917L39.4772 49.3401C39.4777 49.3399 39.4782 49.3397 39.4787 49.3395L46.9002 45.8476L49.2775 46.9662L35.2295 53.4442L32.9928 52.3917ZM31.5251 45.8476L33.9153 46.9722L27.6328 49.8692L25.3054 48.774L31.5251 45.8476ZM46.9003 53.0824L53.1195 56.0094L39.2127 62.5537L25.3053 56.0095L31.5251 53.0824L38.9466 56.575C39.1135 56.6536 39.3122 56.6534 39.4789 56.575L46.9003 53.0824ZM39.2127 55.3187L36.7068 54.1395L50.7549 47.6614L53.1194 48.774L39.2127 55.3187Z" fill="#6496B5"/>
<path d="M32.2029 55.7465L30.9217 55.0915C30.6144 54.9341 30.2379 55.0562 30.0807 55.3634C29.9236 55.6708 30.0454 56.0473 30.3527 56.2044L31.6339 56.8594C31.9372 57.0148 32.3199 56.8906 32.4749 56.5875C32.6319 56.2801 32.5102 55.9036 32.2029 55.7465Z" fill="#6496B5"/>
<path d="M36.169 57.6639L34.888 57.0089C34.5805 56.8516 34.2041 56.9736 34.0469 57.2809C33.8898 57.5882 34.0115 57.9647 34.3189 58.1219L35.5999 58.7769C35.9034 58.9321 36.286 58.808 36.441 58.5049C36.5981 58.1976 36.4764 57.8211 36.169 57.6639Z" fill="#6496B5"/>
<path d="M38.0756 59.1983C37.9185 59.5057 38.0402 59.8822 38.3476 60.0393L39.6287 60.6943C39.9321 60.8496 40.3147 60.7254 40.4697 60.4224C40.6269 60.115 40.5051 59.7385 40.1977 59.5814L38.9166 58.9264C38.6092 58.7691 38.2327 58.8911 38.0756 59.1983Z" fill="#6496B5"/>
<path d="M42.0659 58.1842L43.347 58.8392C43.6504 58.9945 44.033 58.8704 44.188 58.5673C44.3452 58.2599 44.2234 57.8834 43.9161 57.7263L42.635 57.0713C42.3276 56.9139 41.9512 57.036 41.794 57.3432C41.6369 57.6506 41.7586 58.0271 42.0659 58.1842Z" fill="#6496B5"/>
<path d="M45.7843 56.3291L47.0654 56.9841C47.3688 57.1394 47.7514 57.0153 47.9064 56.7122C48.0636 56.4048 47.9418 56.0283 47.6345 55.8712L46.3534 55.2162C46.0461 55.0588 45.6695 55.1809 45.5124 55.4881C45.3552 55.7955 45.477 56.172 45.7843 56.3291Z" fill="#6496B5"/>
<path d="M45.8962 38.0302C46.0451 38.2514 46.3251 38.3572 46.5827 38.2856C46.8397 38.2142 47.0267 37.9806 47.0404 37.714C47.0684 37.1675 46.3998 36.8568 45.9964 37.2205C45.7696 37.425 45.7269 37.7766 45.8962 38.0302Z" fill="#6496B5"/>
</g>
<defs>
<clipPath id="clip0_7338_86582">
<rect width="32" height="32" fill="white" transform="translate(23.2124 32.7737)"/>
</clipPath>
</defs>
</svg>
