<svg width="128" height="129" viewBox="0 0 128 129" fill="none" xmlns="http://www.w3.org/2000/svg">
<g clip-path="url(#clip0_4361_33270)">
<path d="M64 0.5C28.655 0.5 0 29.155 0 64.5C0 99.845 28.655 128.5 64 128.5C99.345 128.5 128 99.845 128 64.5C128 29.155 99.345 0.5 64 0.5ZM64 20C76.6875 20 86.9725 30.285 86.9725 42.9725C86.9725 55.66 76.6875 65.945 64 65.945C51.3125 65.945 41.0275 55.66 41.0275 42.9725C41.0275 30.285 51.3125 20 64 20ZM102.405 96.52C93.2325 107.507 79.4325 114.5 64 114.5C48.5675 114.5 34.7675 107.507 25.595 96.52C24.3075 94.975 23.8325 92.9175 24.3125 90.965C26.5125 81.995 31.6725 74.185 38.7025 68.635C40.885 66.9125 43.9775 66.8675 46.2125 68.5275C50.965 72.06 57.19 74.2 64 74.2C70.81 74.2 77.035 72.06 81.7875 68.5275C84.0225 66.8675 87.115 66.9125 89.2975 68.635C96.3275 74.185 101.488 81.995 103.688 90.965C104.168 92.9175 103.692 94.975 102.405 96.52Z" fill="url(#paint0_linear_4361_33270)"/>
</g>
<defs>
<linearGradient id="paint0_linear_4361_33270" x1="18.7457" y1="19.2455" x2="109.254" y2="109.754" gradientUnits="userSpaceOnUse">
<stop stop-color="#21B4EB"/>
<stop offset="1" stop-color="#077AA6"/>
</linearGradient>
<clipPath id="clip0_4361_33270">
<rect width="128" height="128" fill="white" transform="translate(0 0.5)"/>
</clipPath>
</defs>
</svg>
